%
M48
M72
T01C0.0315
T02C0.0320
T03C0.0394
T04C0.0400
T05C0.1260
%
T01
X4730Y12988
X4560Y18448
X4720Y23838
X4700Y28558
X3710Y30008
X7330Y31818
X7330Y32818
X9880Y29038
X9860Y24108
X9770Y18918
X10490Y13748
X15310Y10048
X15310Y9260
X15310Y8473
X15310Y7686
X15310Y6898
X15310Y6111
X15310Y5323
X15310Y4536
X17540Y6918
X16760Y7688
X16330Y8478
X19080Y7690
X20850Y6898
X21609Y6898
X21609Y6111
X21609Y5323
X21609Y4536
X20130Y4518
X21609Y7686
X21609Y8473
X21609Y9260
X21609Y10048
X21980Y11460
X20130Y18238
X17540Y20238
X16760Y21228
X15600Y19228
X16330Y17228
X21980Y24220
X20850Y25228
X19080Y26230
X15590Y32938
X10490Y34038
T02
X7900Y26188
X4900Y26188
X5150Y21278
X8150Y21278
X7990Y16228
X4990Y16228
X4810Y10908
X7810Y10908
T03
X13459Y17224
X13459Y18224
X13459Y19224
X13459Y20224
X13459Y21224
X13459Y22224
X13459Y23224
X13459Y24224
X13459Y25224
X13459Y26224
X13459Y27224
X13459Y28224
X13459Y29224
X13459Y30224
X13459Y31224
X23211Y31224
X23211Y30224
X23211Y29224
X23211Y28224
X23211Y27224
X23211Y26224
X23211Y25224
X23211Y24224
X23211Y23224
X23211Y22224
X23211Y21224
X23211Y20224
X23211Y19224
X23211Y18224
X23211Y17224
T04
X6060Y7898
X6060Y6898
X6060Y5898
X6060Y4898
X6060Y3898
X6060Y2898
X5500Y30838
X5500Y31838
X5500Y32838
T05
X2495Y1675
X24542Y1675
X24542Y35139
X2495Y35139
M30
