%
M48
M72
T01C0.0315
T02C0.0320
T03C0.0394
T04C0.0400
T05C0.1260
%
T01
X4730Y12988
X4560Y18448
X4720Y23838
X4700Y28558
X3710Y30008
X7330Y31818
X7330Y32818
X9880Y29038
X9860Y24108
X9770Y18918
X10490Y13748
X15310Y10048
X15310Y9260
X15310Y8473
X15310Y7686
X15310Y6898
X15310Y6111
X15310Y5323
X15310Y4536
X17540Y6918
X16760Y7688
X16330Y8478
X19430Y7688
X20850Y6898
X21609Y6898
X21609Y6111
X21609Y5323
X21609Y4536
X20130Y4518
X21609Y7686
X21609Y8473
X21609Y9260
X21609Y10048
X22690Y11318
X20130Y18238
X17540Y20238
X16760Y21228
X15600Y19228
X16330Y17228
X20850Y25228
X19410Y26268
X22690Y24228
X15590Y32938
X10490Y34038
T02
X7900Y26188
X4900Y26188
X5150Y21278
X8150Y21278
X7990Y16228
X4990Y16228
X4810Y10908
X7810Y10908
T03
X13959Y17234
X13959Y18234
X13959Y19234
X13959Y20234
X13959Y21234
X13959Y22234
X13959Y23234
X13959Y24234
X13959Y25234
X13959Y26234
X13959Y27234
X13959Y28234
X13959Y29234
X13959Y30234
X13959Y31234
X23711Y31234
X23711Y30234
X23711Y29234
X23711Y28234
X23711Y27234
X23711Y26234
X23711Y25234
X23711Y24234
X23711Y23234
X23711Y22234
X23711Y21234
X23711Y20234
X23711Y19234
X23711Y18234
X23711Y17234
T04
X6060Y7898
X6060Y6898
X6060Y5898
X6060Y4898
X6060Y3898
X6060Y2898
X5500Y30838
X5500Y31838
X5500Y32838
T05
X2495Y1675
X24542Y1675
X24542Y35139
X2495Y35139
M30
