G75*
%MOIN*%
%OFA0B0*%
%FSLAX24Y24*%
%IPPOS*%
%LPD*%
%AMOC8*
5,1,8,0,0,1.08239X$1,22.5*
%
%ADD10C,0.1340*%
%ADD11R,0.0595X0.0595*%
%ADD12C,0.0595*%
%ADD13C,0.0600*%
%ADD14C,0.0680*%
%ADD15C,0.0840*%
%ADD16C,0.0555*%
D10*
X002495Y001675D03*
X024542Y001675D03*
X024542Y035139D03*
X002495Y035139D03*
D11*
X007330Y032818D03*
X015310Y010048D03*
D12*
X015310Y009260D03*
X015310Y008473D03*
X015310Y007686D03*
X015310Y006898D03*
X015310Y006111D03*
X015310Y005323D03*
X015310Y004536D03*
X021609Y004536D03*
X021609Y005323D03*
X021609Y006111D03*
X021609Y006898D03*
X021609Y007686D03*
X021609Y008473D03*
X021609Y009260D03*
X021609Y010048D03*
X007330Y031818D03*
D13*
X007640Y026188D02*
X008160Y026188D01*
X005160Y026188D02*
X004640Y026188D01*
X004890Y021278D02*
X005410Y021278D01*
X007890Y021278D02*
X008410Y021278D01*
X008250Y016228D02*
X007730Y016228D01*
X005250Y016228D02*
X004730Y016228D01*
X004550Y010908D02*
X005070Y010908D01*
X007550Y010908D02*
X008070Y010908D01*
D14*
X006360Y007898D02*
X005760Y007898D01*
X005760Y006898D02*
X006360Y006898D01*
X006360Y005898D02*
X005760Y005898D01*
X005760Y004898D02*
X006360Y004898D01*
X006360Y003898D02*
X005760Y003898D01*
X005760Y002898D02*
X006360Y002898D01*
X005800Y030838D02*
X005200Y030838D01*
X005200Y031838D02*
X005800Y031838D01*
X005800Y032838D02*
X005200Y032838D01*
D15*
X013459Y031224D03*
X013459Y030224D03*
X013459Y029224D03*
X013459Y028224D03*
X013459Y027224D03*
X013459Y026224D03*
X013459Y025224D03*
X013459Y024224D03*
X013459Y023224D03*
X013459Y022224D03*
X013459Y021224D03*
X013459Y020224D03*
X013459Y019224D03*
X013459Y018224D03*
X013459Y017224D03*
X023211Y017224D03*
X023211Y018224D03*
X023211Y019224D03*
X023211Y020224D03*
X023211Y021224D03*
X023211Y022224D03*
X023211Y023224D03*
X023211Y024224D03*
X023211Y025224D03*
X023211Y026224D03*
X023211Y027224D03*
X023211Y028224D03*
X023211Y029224D03*
X023211Y030224D03*
X023211Y031224D03*
D16*
X020850Y025228D03*
X021980Y024220D03*
X019080Y026230D03*
X016760Y021228D03*
X017540Y020238D03*
X015600Y019228D03*
X016330Y017228D03*
X020130Y018238D03*
X021980Y011460D03*
X019080Y007690D03*
X017540Y006918D03*
X016760Y007688D03*
X016330Y008478D03*
X020130Y004518D03*
X020850Y006898D03*
X010490Y013748D03*
X009770Y018918D03*
X009860Y024108D03*
X009880Y029038D03*
X010490Y034038D03*
X015590Y032938D03*
X004720Y023838D03*
X004700Y028558D03*
X003710Y030008D03*
X004560Y018448D03*
X004730Y012988D03*
M02*
