G75*
%MOIN*%
%OFA0B0*%
%FSLAX24Y24*%
%IPPOS*%
%LPD*%
%AMOC8*
5,1,8,0,0,1.08239X$1,22.5*
%
%ADD10C,0.0080*%
%ADD11R,0.0515X0.0515*%
%ADD12C,0.0515*%
%ADD13R,0.0710X0.0630*%
%ADD14R,0.0630X0.0710*%
%ADD15C,0.0520*%
%ADD16R,0.0217X0.0472*%
%ADD17C,0.0600*%
%ADD18C,0.0760*%
%ADD19C,0.0160*%
%ADD20C,0.0400*%
%ADD21C,0.0320*%
%ADD22C,0.0240*%
%ADD23C,0.0475*%
D10*
X010102Y001840D02*
X010716Y001840D01*
X010409Y001840D02*
X010409Y002761D01*
X010716Y002454D01*
X011023Y001993D02*
X011023Y001840D01*
X011176Y001840D01*
X011176Y001993D01*
X011023Y001993D01*
X011483Y001993D02*
X011636Y001840D01*
X011943Y001840D01*
X012097Y001993D01*
X011483Y002607D01*
X011483Y001993D01*
X011483Y002607D02*
X011636Y002761D01*
X011943Y002761D01*
X012097Y002607D01*
X012097Y001993D01*
X012404Y002147D02*
X012404Y002761D01*
X013018Y002761D02*
X013018Y002147D01*
X012711Y001840D01*
X012404Y002147D01*
X013325Y002147D02*
X013325Y001993D01*
X013478Y001840D01*
X013785Y001840D01*
X013938Y001993D01*
X014245Y001993D02*
X014399Y001840D01*
X014706Y001840D01*
X014859Y001993D01*
X014859Y002147D01*
X014706Y002300D01*
X014399Y002300D01*
X014245Y002147D01*
X014245Y001993D01*
X014399Y002300D02*
X014245Y002454D01*
X014245Y002607D01*
X014399Y002761D01*
X014706Y002761D01*
X014859Y002607D01*
X014859Y002454D01*
X014706Y002300D01*
X015166Y002147D02*
X015166Y001993D01*
X015320Y001840D01*
X015780Y001840D01*
X015780Y002761D01*
X015320Y002761D01*
X015166Y002607D01*
X015166Y002454D01*
X015320Y002300D01*
X015780Y002300D01*
X015320Y002300D02*
X015166Y002147D01*
X013938Y002607D02*
X013785Y002761D01*
X013478Y002761D01*
X013325Y002607D01*
X013325Y002454D01*
X013478Y002300D01*
X013325Y002147D01*
X013478Y002300D02*
X013631Y002300D01*
D11*
X015310Y010048D03*
X007330Y032818D03*
D12*
X007330Y031818D03*
X021609Y010048D03*
X021609Y009260D03*
X021609Y008473D03*
X021609Y007686D03*
X021609Y006898D03*
X021609Y006111D03*
X021609Y005323D03*
X021609Y004536D03*
X015310Y004536D03*
X015310Y005323D03*
X015310Y006111D03*
X015310Y006898D03*
X015310Y007686D03*
X015310Y008473D03*
X015310Y009260D03*
D13*
X008660Y031798D03*
X008660Y032918D03*
D14*
X009140Y029038D03*
X008020Y029038D03*
X006960Y027188D03*
X005840Y027188D03*
X004460Y027188D03*
X003340Y027188D03*
X004030Y022258D03*
X005150Y022258D03*
X006070Y022268D03*
X007190Y022268D03*
X008080Y024108D03*
X009200Y024108D03*
X008900Y018918D03*
X007780Y018918D03*
X006990Y017158D03*
X005870Y017158D03*
X004990Y017158D03*
X003870Y017158D03*
X003690Y011808D03*
X004810Y011808D03*
X005680Y011808D03*
X006800Y011808D03*
X007610Y013738D03*
X008730Y013738D03*
D15*
X008250Y016228D02*
X007730Y016228D01*
X005250Y016228D02*
X004730Y016228D01*
X004890Y021278D02*
X005410Y021278D01*
X007890Y021278D02*
X008410Y021278D01*
X008160Y026188D02*
X007640Y026188D01*
X005160Y026188D02*
X004640Y026188D01*
X004550Y010908D02*
X005070Y010908D01*
X007550Y010908D02*
X008070Y010908D01*
D16*
X007980Y011806D03*
X007606Y011806D03*
X008354Y011806D03*
X008354Y012830D03*
X007606Y012830D03*
X007776Y017086D03*
X008150Y017086D03*
X008524Y017086D03*
X008524Y018110D03*
X007776Y018110D03*
X008086Y022236D03*
X008460Y022236D03*
X008834Y022236D03*
X008834Y023260D03*
X008086Y023260D03*
X008026Y027176D03*
X008400Y027176D03*
X008774Y027176D03*
X008774Y028200D03*
X008026Y028200D03*
D17*
X005800Y030838D02*
X005200Y030838D01*
X005200Y031838D02*
X005800Y031838D01*
X005800Y032838D02*
X005200Y032838D01*
X005760Y007898D02*
X006360Y007898D01*
X006360Y006898D02*
X005760Y006898D01*
X005760Y005898D02*
X006360Y005898D01*
X006360Y004898D02*
X005760Y004898D01*
X005760Y003898D02*
X006360Y003898D01*
X006360Y002898D02*
X005760Y002898D01*
D18*
X013959Y017234D03*
X013959Y018234D03*
X013959Y019234D03*
X013959Y020234D03*
X013959Y021234D03*
X013959Y022234D03*
X013959Y023234D03*
X013959Y024234D03*
X013959Y025234D03*
X013959Y026234D03*
X013959Y027234D03*
X013959Y028234D03*
X013959Y029234D03*
X013959Y030234D03*
X013959Y031234D03*
X023711Y031234D03*
X023711Y030234D03*
X023711Y029234D03*
X023711Y028234D03*
X023711Y027234D03*
X023711Y026234D03*
X023711Y025234D03*
X023711Y024234D03*
X023711Y023234D03*
X023711Y022234D03*
X023711Y021234D03*
X023711Y020234D03*
X023711Y019234D03*
X023711Y018234D03*
X023711Y017234D03*
D19*
X016336Y017234D01*
X016330Y017228D01*
X017544Y020234D02*
X017540Y020238D01*
X017544Y020234D02*
X023711Y020234D01*
X023710Y018278D02*
X023711Y018277D01*
X023711Y018234D01*
X020134Y018234D01*
X020130Y018238D01*
X016760Y021228D02*
X016754Y021234D01*
X013959Y021234D01*
X012050Y020598D02*
X012050Y024325D01*
X013959Y026234D01*
X013959Y027234D02*
X013935Y027258D01*
X013310Y027258D01*
X011180Y025128D01*
X008360Y025128D01*
X008080Y024848D01*
X008080Y024108D01*
X008570Y025638D02*
X005450Y025638D01*
X004900Y026188D01*
X003340Y027188D02*
X002400Y026248D01*
X002400Y007918D01*
X005390Y004928D01*
X006130Y004928D01*
X006100Y004898D01*
X006060Y004898D01*
X006060Y005898D02*
X005600Y005898D01*
X002690Y008808D01*
X002690Y021638D01*
X003300Y022248D01*
X004020Y022248D01*
X004030Y022258D01*
X005150Y021278D02*
X005790Y020638D01*
X008860Y020638D01*
X009070Y020848D01*
X009070Y021368D01*
X008460Y021978D01*
X008460Y022236D01*
X008120Y019948D02*
X011400Y019948D01*
X012050Y020598D01*
X012660Y023935D02*
X013959Y025234D01*
X012660Y023935D02*
X012660Y016508D01*
X011010Y014858D01*
X008160Y014858D01*
X007610Y014308D01*
X007610Y013738D01*
X007980Y011806D02*
X007980Y011578D01*
X008240Y011318D01*
X008480Y011318D01*
X008670Y011128D01*
X008670Y010628D01*
X008470Y010428D01*
X005290Y010428D01*
X004810Y010908D01*
X003690Y010278D02*
X003690Y011808D01*
X003690Y010278D02*
X006060Y007908D01*
X006060Y006898D02*
X005810Y006898D01*
X003090Y009618D01*
X003090Y016378D01*
X003870Y017158D01*
X004990Y016228D02*
X005550Y015668D01*
X008740Y015668D01*
X009080Y016008D01*
X009080Y016368D01*
X008760Y016688D01*
X008310Y016688D01*
X008150Y016848D01*
X008150Y017086D01*
X007780Y018918D02*
X007780Y019608D01*
X008120Y019948D01*
X008570Y025638D02*
X008770Y025838D01*
X008770Y026468D01*
X008400Y026838D01*
X008400Y027176D01*
X008020Y029038D02*
X008020Y029658D01*
X008300Y029938D01*
X011360Y029938D01*
X013070Y028228D01*
X013953Y028228D01*
X013959Y028234D01*
X008660Y032918D02*
X008660Y032918D01*
X008420Y032918D01*
X007800Y032298D01*
X006580Y032298D01*
X006120Y031838D01*
X005500Y031838D01*
X005500Y030838D02*
X005500Y030798D01*
X005490Y030788D01*
X007330Y031818D02*
X007350Y031818D01*
X007400Y031768D01*
X019410Y026268D02*
X023677Y026268D01*
X023711Y026234D01*
X023711Y025234D02*
X023705Y025228D01*
X020850Y025228D01*
X022690Y024228D02*
X022696Y024234D01*
X023711Y024234D01*
X022690Y011318D02*
X022690Y010341D01*
X021609Y009260D01*
X021609Y007686D02*
X019432Y007686D01*
X019430Y007688D01*
X020850Y006898D02*
X020850Y006898D01*
X021609Y006898D01*
X021609Y004536D02*
X021591Y004518D01*
X020130Y004518D01*
X017540Y006918D02*
X015330Y006918D01*
X015310Y006898D01*
X015310Y007686D02*
X015312Y007688D01*
X016760Y007688D01*
X016330Y008478D02*
X015315Y008478D01*
X015310Y008473D01*
D20*
X005870Y017158D02*
X004990Y017158D01*
X004990Y017158D01*
X004990Y016228D01*
X004810Y011808D02*
X004810Y011808D01*
X005680Y011808D01*
X004810Y011808D02*
X004810Y010908D01*
X005150Y021278D02*
X005150Y022258D01*
X005160Y022268D01*
X006070Y022268D01*
X005150Y022258D02*
X005150Y022258D01*
X004900Y026188D02*
X004900Y027168D01*
X004920Y027188D01*
X005840Y027188D01*
X004920Y027188D02*
X004460Y027188D01*
X007400Y031768D02*
X008630Y031768D01*
X008660Y031798D01*
X007330Y032818D02*
X007310Y032838D01*
X005500Y032838D01*
D21*
X001790Y004408D02*
X003310Y002888D01*
X006050Y002888D01*
X006060Y002898D01*
X006060Y007898D02*
X006060Y007908D01*
X006800Y011808D02*
X006800Y012808D01*
X006620Y012988D01*
X004730Y012988D01*
X003690Y011808D02*
X003690Y011808D01*
X007039Y017109D02*
X007039Y018079D01*
X006680Y018438D01*
X004570Y018438D01*
X004560Y018448D01*
X007190Y022268D02*
X007190Y023588D01*
X006940Y023838D01*
X004720Y023838D01*
X006960Y027188D02*
X006960Y028458D01*
X006860Y028558D01*
X004700Y028558D01*
X004590Y029408D02*
X004010Y029408D01*
X001790Y027188D01*
X001790Y004408D01*
X008730Y013738D02*
X010480Y013738D01*
X010490Y013748D01*
X011510Y013748D01*
X013970Y016208D01*
X013970Y017223D01*
X013959Y017234D01*
X013959Y019234D02*
X015594Y019234D01*
X015600Y019228D01*
X009770Y018918D02*
X008900Y018918D01*
X009200Y024108D02*
X009860Y024108D01*
X008026Y028200D02*
X008026Y029032D01*
X009140Y029038D02*
X009880Y029038D01*
X008660Y032918D02*
X008680Y032938D01*
X015590Y032938D01*
X010490Y034038D02*
X007920Y034038D01*
X007320Y033438D01*
X007320Y032828D01*
X007330Y032818D01*
X006120Y031838D02*
X004320Y031838D01*
X003710Y031228D01*
X003710Y030008D01*
X004590Y029408D02*
X005490Y030308D01*
X005490Y030788D01*
D22*
X008020Y029038D02*
X008026Y029032D01*
X008774Y028242D02*
X009150Y028618D01*
X009150Y029028D01*
X009140Y029038D01*
X008774Y028242D02*
X008774Y028200D01*
X008014Y027188D02*
X008026Y027176D01*
X007900Y027050D01*
X007900Y026188D01*
X008014Y027188D02*
X006960Y027188D01*
X008080Y024108D02*
X008086Y024102D01*
X008086Y023260D01*
X008834Y023260D02*
X008834Y023342D01*
X009220Y023728D01*
X009220Y024088D01*
X009200Y024108D01*
X008054Y022268D02*
X008086Y022236D01*
X008054Y022268D02*
X007190Y022268D01*
X007190Y022268D01*
X007190Y021788D01*
X007700Y021278D01*
X008150Y021278D01*
X007780Y018918D02*
X007776Y018914D01*
X007776Y018110D01*
X008524Y018110D02*
X008524Y018122D01*
X008900Y018498D01*
X008900Y018918D01*
X008900Y018918D01*
X007776Y017086D02*
X007062Y017086D01*
X007039Y017109D01*
X006990Y017158D01*
X006990Y017158D01*
X006990Y016598D01*
X007360Y016228D01*
X007990Y016228D01*
X007610Y013738D02*
X007606Y013734D01*
X007606Y012830D01*
X008354Y012830D02*
X008354Y012952D01*
X008740Y013338D01*
X008740Y013728D01*
X008730Y013738D01*
X007606Y011806D02*
X006802Y011806D01*
X006800Y011808D01*
X006820Y011788D01*
X006820Y011188D01*
X007100Y010908D01*
X007810Y010908D01*
X021609Y008473D02*
X021614Y008478D01*
X023220Y008478D01*
X025200Y010458D01*
X025200Y030948D01*
X024914Y031234D01*
X023711Y031234D01*
D23*
X019410Y026268D03*
X020850Y025228D03*
X022690Y024228D03*
X020130Y018238D03*
X017540Y020238D03*
X016760Y021228D03*
X015600Y019228D03*
X016330Y017228D03*
X010490Y013748D03*
X009770Y018918D03*
X009860Y024108D03*
X009880Y029038D03*
X010490Y034038D03*
X015590Y032938D03*
X004720Y023838D03*
X004700Y028558D03*
X003710Y030008D03*
X004560Y018448D03*
X004730Y012988D03*
X016330Y008478D03*
X016760Y007688D03*
X017540Y006918D03*
X019430Y007688D03*
X020850Y006898D03*
X020130Y004518D03*
X022690Y011318D03*
M02*
