G75*
%MOIN*%
%OFA0B0*%
%FSLAX24Y24*%
%IPPOS*%
%LPD*%
%AMOC8*
5,1,8,0,0,1.08239X$1,22.5*
%
%ADD10R,0.0515X0.0515*%
%ADD11C,0.0515*%
%ADD12C,0.0520*%
%ADD13C,0.0600*%
%ADD14C,0.0760*%
%ADD15C,0.0475*%
%ADD16C,0.0320*%
%ADD17C,0.0400*%
%ADD18C,0.0240*%
D10*
X013110Y010928D03*
X007550Y032768D03*
D11*
X007550Y031768D03*
X013110Y009928D03*
X013110Y008928D03*
X013110Y007928D03*
X013110Y006928D03*
X013110Y005928D03*
X013110Y004928D03*
X013110Y003928D03*
X023110Y003928D03*
X023110Y004928D03*
X023110Y005928D03*
X023110Y006928D03*
X023110Y007928D03*
X023110Y008928D03*
X023110Y009928D03*
X023110Y010928D03*
D12*
X007850Y021278D02*
X007330Y021278D01*
X004850Y021278D02*
X004330Y021278D01*
X004170Y016228D02*
X004690Y016228D01*
X007170Y016228D02*
X007690Y016228D01*
X007510Y010908D02*
X006990Y010908D01*
X004510Y010908D02*
X003990Y010908D01*
X004080Y026188D02*
X004600Y026188D01*
X007080Y026188D02*
X007600Y026188D01*
D13*
X006200Y030838D02*
X005600Y030838D01*
X005600Y031838D02*
X006200Y031838D01*
X006200Y032838D02*
X005600Y032838D01*
X005800Y007898D02*
X005200Y007898D01*
X005200Y006898D02*
X005800Y006898D01*
X005800Y005898D02*
X005200Y005898D01*
X005200Y004898D02*
X005800Y004898D01*
X005800Y003898D02*
X005200Y003898D01*
X005200Y002898D02*
X005800Y002898D01*
D14*
X012899Y017224D03*
X012899Y018224D03*
X012899Y019224D03*
X012899Y020224D03*
X012899Y021224D03*
X012899Y022224D03*
X012899Y023224D03*
X012899Y024224D03*
X012899Y025224D03*
X012899Y026224D03*
X012899Y027224D03*
X012899Y028224D03*
X012899Y029224D03*
X012899Y030224D03*
X012899Y031224D03*
X022651Y031224D03*
X022651Y030224D03*
X022651Y029224D03*
X022651Y028224D03*
X022651Y027224D03*
X022651Y026224D03*
X022651Y025224D03*
X022651Y024224D03*
X022651Y023224D03*
X022651Y022224D03*
X022651Y021224D03*
X022651Y020224D03*
X022651Y019224D03*
X022651Y018224D03*
X022651Y017224D03*
D15*
X021420Y011460D03*
X018520Y007690D03*
X016980Y006918D03*
X016200Y007688D03*
X015130Y008478D03*
X009930Y013748D03*
X015130Y017228D03*
X015040Y019228D03*
X016200Y021228D03*
X016980Y020238D03*
X020290Y025228D03*
X021420Y024220D03*
X018520Y026230D03*
X015030Y032938D03*
X009930Y034038D03*
X004140Y028558D03*
X003150Y030008D03*
X004160Y023838D03*
X004000Y018448D03*
X004170Y012988D03*
X020290Y006898D03*
D16*
X003600Y003898D02*
X003150Y004348D01*
X003150Y012948D01*
X003190Y012988D01*
X004170Y012988D01*
X003150Y012948D02*
X003150Y018468D01*
X003170Y018448D01*
X004000Y018448D01*
X003150Y018468D02*
X003150Y023818D01*
X003170Y023838D01*
X004160Y023838D01*
X003150Y023818D02*
X003150Y028568D01*
X003160Y028558D01*
X004140Y028558D01*
X003150Y028568D02*
X003150Y030008D01*
X009890Y029038D02*
X009930Y029078D01*
X009930Y034038D01*
X009930Y029078D02*
X009930Y013748D01*
X005500Y003898D02*
X003600Y003898D01*
X015040Y032928D02*
X015030Y032938D01*
D17*
X015040Y032928D02*
X015040Y019228D01*
D18*
X016200Y021228D02*
X016200Y007688D01*
X016980Y006918D02*
X016980Y020238D01*
X015130Y017228D02*
X015130Y008478D01*
X018520Y007690D02*
X018520Y026230D01*
X020290Y025228D02*
X020290Y006898D01*
X021420Y011460D02*
X021420Y024220D01*
M02*
