G75*
%MOIN*%
%OFA0B0*%
%FSLAX24Y24*%
%IPPOS*%
%LPD*%
%AMOC8*
5,1,8,0,0,1.08239X$1,22.5*
%
%ADD10R,0.0515X0.0515*%
%ADD11C,0.0515*%
%ADD12R,0.0710X0.0630*%
%ADD13R,0.0630X0.0710*%
%ADD14C,0.0520*%
%ADD15C,0.0600*%
%ADD16C,0.0760*%
%ADD17C,0.0240*%
%ADD18C,0.0320*%
%ADD19C,0.0160*%
%ADD20C,0.0475*%
%ADD21C,0.0400*%
D10*
X013110Y010928D03*
X007550Y032768D03*
D11*
X007550Y031768D03*
X013110Y009928D03*
X013110Y008928D03*
X013110Y007928D03*
X013110Y006928D03*
X013110Y005928D03*
X013110Y004928D03*
X013110Y003928D03*
X023110Y003928D03*
X023110Y004928D03*
X023110Y005928D03*
X023110Y006928D03*
X023110Y007928D03*
X023110Y008928D03*
X023110Y009928D03*
X023110Y010928D03*
D12*
X008960Y031768D03*
X008960Y032888D03*
D13*
X006400Y027188D03*
X005280Y027188D03*
X003900Y027188D03*
X002780Y027188D03*
X003470Y022258D03*
X004590Y022258D03*
X005510Y022268D03*
X006630Y022268D03*
X006430Y017158D03*
X005310Y017158D03*
X004430Y017158D03*
X003310Y017158D03*
X003130Y011808D03*
X004250Y011808D03*
X005120Y011808D03*
X006240Y011808D03*
D14*
X006990Y010908D02*
X007510Y010908D01*
X004510Y010908D02*
X003990Y010908D01*
X004170Y016228D02*
X004690Y016228D01*
X007170Y016228D02*
X007690Y016228D01*
X007850Y021278D02*
X007330Y021278D01*
X004850Y021278D02*
X004330Y021278D01*
X004080Y026188D02*
X004600Y026188D01*
X007080Y026188D02*
X007600Y026188D01*
D15*
X006200Y030838D02*
X005600Y030838D01*
X005600Y031838D02*
X006200Y031838D01*
X006200Y032838D02*
X005600Y032838D01*
X005800Y007898D02*
X005200Y007898D01*
X005200Y006898D02*
X005800Y006898D01*
X005800Y005898D02*
X005200Y005898D01*
X005200Y004898D02*
X005800Y004898D01*
X005800Y003898D02*
X005200Y003898D01*
X005200Y002898D02*
X005800Y002898D01*
D16*
X012899Y017224D03*
X012899Y018224D03*
X012899Y019224D03*
X012899Y020224D03*
X012899Y021224D03*
X012899Y022224D03*
X012899Y023224D03*
X012899Y024224D03*
X012899Y025224D03*
X012899Y026224D03*
X012899Y027224D03*
X012899Y028224D03*
X012899Y029224D03*
X012899Y030224D03*
X012899Y031224D03*
X022651Y031224D03*
X022651Y030224D03*
X022651Y029224D03*
X022651Y028224D03*
X022651Y027224D03*
X022651Y026224D03*
X022651Y025224D03*
X022651Y024224D03*
X022651Y023224D03*
X022651Y022224D03*
X022651Y021224D03*
X022651Y020224D03*
X022651Y019224D03*
X022651Y018224D03*
X022651Y017224D03*
D17*
X022641Y017234D01*
X015776Y017234D01*
X015770Y017228D01*
X015130Y017228D01*
X016984Y020234D02*
X022641Y020234D01*
X022651Y020224D01*
X022651Y024224D02*
X021424Y024224D01*
X021420Y024220D01*
X022651Y026224D02*
X022645Y026230D01*
X018520Y026230D01*
X022651Y031224D02*
X022661Y031234D01*
X024354Y031234D01*
X024640Y030948D01*
X024640Y010458D01*
X023110Y008928D01*
X023110Y009928D02*
X022952Y009928D01*
X021420Y011460D01*
X021420Y011330D01*
X023110Y007928D02*
X022868Y007686D01*
X018524Y007686D01*
X018520Y007690D01*
X016980Y006918D02*
X013120Y006918D01*
X013350Y007688D02*
X016200Y007688D01*
X015130Y008478D02*
X013560Y008478D01*
X013110Y008928D01*
X007250Y010908D02*
X007250Y011720D01*
X007150Y011820D01*
X006252Y011820D01*
X006240Y011808D01*
X006260Y011788D01*
X006242Y011806D02*
X006240Y011808D01*
X007430Y016228D02*
X007430Y017010D01*
X007280Y017160D01*
X006432Y017160D01*
X006430Y017158D01*
X006430Y017158D01*
X006479Y017109D01*
X007590Y021278D02*
X007590Y022210D01*
X007530Y022270D01*
X006632Y022270D01*
X006630Y022268D01*
X007340Y026188D02*
X007340Y027050D01*
X007202Y027188D01*
X006400Y027188D01*
X007550Y031768D02*
X007550Y031768D01*
X008960Y031768D01*
X020290Y006898D02*
X023080Y006898D01*
X023110Y006928D01*
D18*
X005490Y002888D02*
X002750Y002888D01*
X001230Y004408D01*
X001230Y027188D01*
X003450Y029408D01*
X004030Y029408D01*
X005460Y030838D01*
X005900Y030838D01*
X005900Y032838D02*
X007480Y032838D01*
X007550Y032768D01*
X007550Y033580D01*
X008000Y034030D01*
X009922Y034030D01*
X009930Y034038D01*
X008788Y032938D02*
X008740Y032890D01*
X006300Y028558D02*
X004140Y028558D01*
X003150Y031130D02*
X003150Y031228D01*
X006300Y028558D02*
X006400Y028458D01*
X006400Y027188D01*
X006380Y023838D02*
X004160Y023838D01*
X006380Y023838D02*
X006630Y023588D01*
X006630Y022268D01*
X006120Y018438D02*
X004010Y018438D01*
X004000Y018448D01*
X006120Y018438D02*
X006479Y018079D01*
X006479Y017109D01*
X006060Y012988D02*
X004170Y012988D01*
X003130Y011808D02*
X003130Y011808D01*
X006060Y012988D02*
X006240Y012808D01*
X006240Y011808D01*
X005500Y007908D02*
X005500Y007898D01*
X005500Y002898D02*
X005490Y002888D01*
X010980Y003300D02*
X011720Y002560D01*
X022630Y002560D01*
X023140Y003070D01*
X023140Y003910D01*
X023110Y010928D02*
X023110Y011890D01*
X022550Y012450D01*
X014632Y012450D01*
X013110Y010928D01*
X013110Y009928D02*
X011378Y009928D01*
X010980Y009530D01*
X010980Y003880D01*
X010980Y003300D01*
X009920Y013738D02*
X009930Y013748D01*
X012900Y017223D02*
X012899Y017224D01*
X015034Y019234D02*
X015040Y019228D01*
X016196Y021224D02*
X016200Y021228D01*
X016196Y021224D02*
X012899Y021224D01*
D19*
X011490Y018978D02*
X008520Y016008D01*
X008376Y015864D01*
X008180Y015668D01*
X004990Y015668D01*
X004430Y016228D01*
X003310Y017158D02*
X002530Y016378D01*
X002530Y009618D01*
X005250Y006898D01*
X005500Y006898D01*
X005500Y005898D02*
X005040Y005898D01*
X002130Y008808D01*
X002130Y021638D01*
X002740Y022248D01*
X003460Y022248D01*
X003470Y022258D01*
X004590Y021278D02*
X005230Y020638D01*
X008300Y020638D01*
X010428Y022766D01*
X010428Y025128D01*
X012520Y027220D01*
X012895Y027220D01*
X012899Y027224D01*
X012899Y026224D02*
X011490Y024815D01*
X011490Y018978D01*
X012100Y017120D02*
X008110Y013130D01*
X008110Y010628D01*
X007910Y010428D01*
X004730Y010428D01*
X004250Y010908D01*
X003130Y010278D02*
X003130Y011808D01*
X003130Y010278D02*
X005500Y007908D01*
X005570Y004928D02*
X004830Y004928D01*
X001840Y007918D01*
X001840Y026248D01*
X002780Y027188D01*
X004340Y026188D02*
X004890Y025638D01*
X008010Y025638D01*
X010600Y028228D01*
X012895Y028228D01*
X012899Y028224D01*
X012899Y025224D02*
X012100Y024425D01*
X012100Y017120D01*
X016194Y021234D02*
X016200Y021228D01*
X016980Y020238D02*
X016984Y020234D01*
X020290Y025228D02*
X022647Y025228D01*
X022651Y025224D01*
X013110Y007928D02*
X013350Y007688D01*
X013110Y006928D02*
X013120Y006918D01*
X020290Y006898D02*
X020290Y006898D01*
X005570Y004928D02*
X005540Y004898D01*
X005500Y004898D01*
X005560Y031838D02*
X005900Y031838D01*
X008710Y032890D02*
X008740Y032890D01*
X008958Y032890D01*
X008960Y032888D01*
D20*
X009930Y034038D03*
X015030Y032938D03*
X018520Y026230D03*
X020290Y025228D03*
X021420Y024220D03*
X016980Y020238D03*
X016200Y021228D03*
X015040Y019228D03*
X015130Y017228D03*
X009930Y013748D03*
X015130Y008478D03*
X016200Y007688D03*
X016980Y006918D03*
X018520Y007690D03*
X020290Y006898D03*
X021420Y011460D03*
X004170Y012988D03*
X004000Y018448D03*
X004160Y023838D03*
X004140Y028558D03*
X003150Y030008D03*
D21*
X003150Y031130D01*
X003150Y031860D01*
X003172Y031838D01*
X005900Y031838D01*
X003150Y033760D02*
X004660Y035270D01*
X013800Y035270D01*
X015020Y034050D01*
X015020Y032948D01*
X015030Y032938D01*
X008788Y032938D01*
X005280Y027188D02*
X004360Y027188D01*
X004340Y027168D01*
X004340Y026188D01*
X004360Y027188D02*
X003900Y027188D01*
X003150Y031860D02*
X003150Y033760D01*
X004600Y022268D02*
X004590Y022258D01*
X004590Y022258D01*
X004590Y021278D01*
X004600Y022268D02*
X005510Y022268D01*
X005310Y017158D02*
X004430Y017158D01*
X004430Y017158D01*
X004430Y016228D01*
X004250Y011808D02*
X004250Y011808D01*
X005120Y011808D01*
X004250Y011808D02*
X004250Y010908D01*
X005500Y003898D02*
X010962Y003898D01*
X010980Y003880D01*
X013110Y009928D02*
X013110Y010928D01*
X010950Y013748D02*
X013410Y016208D01*
X013410Y017223D01*
X012900Y017223D01*
X012899Y018224D02*
X015020Y018224D01*
X015034Y018238D01*
X015034Y019234D01*
X015020Y018224D02*
X022651Y018224D01*
X010950Y013748D02*
X009930Y013748D01*
M02*
