%
M48
M72
T01C0.0315
T02C0.0320
T03C0.0394
T04C0.0400
T05C0.1260
%
T01
X4170Y12988
X4000Y18448
X4160Y23838
X4140Y28558
X3150Y30008
X7550Y31768
X7550Y32768
X9930Y34038
X15030Y32938
X18520Y26230
X20290Y25228
X21420Y24220
X16980Y20238
X16200Y21228
X15040Y19228
X15130Y17228
X13110Y10928
X13110Y9928
X13110Y8928
X13110Y7928
X13110Y6928
X13110Y5928
X13110Y4928
X13110Y3928
X16200Y7688
X16980Y6918
X18520Y7690
X20290Y6898
X23110Y6928
X23110Y5928
X23110Y4928
X23110Y3928
X23110Y7928
X23110Y8928
X23110Y9928
X23110Y10928
X21420Y11460
X15130Y8478
X9930Y13748
T02
X7430Y16228
X4430Y16228
X4590Y21278
X7590Y21278
X7340Y26188
X4340Y26188
X4250Y10908
X7250Y10908
T03
X12899Y17224
X12899Y18224
X12899Y19224
X12899Y20224
X12899Y21224
X12899Y22224
X12899Y23224
X12899Y24224
X12899Y25224
X12899Y26224
X12899Y27224
X12899Y28224
X12899Y29224
X12899Y30224
X12899Y31224
X22651Y31224
X22651Y30224
X22651Y29224
X22651Y28224
X22651Y27224
X22651Y26224
X22651Y25224
X22651Y24224
X22651Y23224
X22651Y22224
X22651Y21224
X22651Y20224
X22651Y19224
X22651Y18224
X22651Y17224
T04
X5900Y30838
X5900Y31838
X5900Y32838
X5500Y7898
X5500Y6898
X5500Y5898
X5500Y4898
X5500Y3898
X5500Y2898
T05
X1935Y1675
X23982Y1675
X23982Y35139
X1935Y35139
M30
